<svg width="226" height="184" viewBox="0 0 226 184" fill="none" xmlns="http://www.w3.org/2000/svg">
<path d="M108.049 98.2737C107.419 87.1705 98.5074 78.324 87.4055 77.8125C87.0754 77.8125 86.7454 77.8125 86.4153 77.8125C86.0852 77.8125 85.7252 77.8125 85.3951 77.8125C78.0438 78.1435 71.6227 82.1755 67.992 88.0732C67.902 88.2236 67.782 88.4042 67.692 88.5546C67.3019 89.2467 66.9419 89.9387 66.6118 90.6609C66.4618 91.022 66.2817 91.4132 66.1617 91.8043C65.3816 93.8203 64.9315 96.0169 64.7815 98.2737C64.7815 98.6949 64.7515 99.0861 64.7515 99.5073C64.7515 111.513 74.4732 121.232 86.4153 121.232C93.9466 121.232 100.578 117.381 104.448 111.543C104.569 111.363 104.689 111.152 104.809 110.972C105.019 110.611 105.229 110.28 105.439 109.888C106.459 107.993 107.239 105.947 107.659 103.75C107.929 102.366 108.079 100.922 108.079 99.4773C108.079 99.056 108.079 98.6347 108.049 98.2436V98.2737ZM100.908 92.045C103.818 97.04 104.388 103.931 100.908 108.775C99.7677 110.37 98.2374 111.664 96.5571 112.596C97.9974 111.303 99.2576 109.918 100.218 108.324C103.188 103.419 102.618 97.3409 100.938 92.045H100.908Z" fill="url(#paint0_radial_16544_19336)"/>
<path d="M87.4055 77.8123C87.0754 77.8123 86.7454 77.8123 86.4153 77.8123C86.0853 77.8123 85.7252 77.8123 85.3951 77.8123C78.0438 78.1433 71.6227 82.1754 67.9921 88.073C67.902 88.2234 67.782 88.404 67.692 88.5544C67.3019 89.2465 66.9419 89.9386 66.6118 90.6607C66.4618 91.0218 66.2818 91.413 66.1617 91.8041C65.3816 93.8202 64.9315 96.0167 64.7815 98.2735C65.4116 109.708 74.8633 118.765 86.4153 118.765C93.9467 118.765 100.578 114.913 104.449 109.076C104.569 108.895 104.689 108.685 104.809 108.504C105.019 108.143 105.229 107.782 105.439 107.421C106.459 105.525 107.239 103.479 107.659 101.282C107.869 100.29 107.989 99.2664 108.049 98.2434C107.419 87.1402 98.5075 78.2938 87.4055 77.7822V77.8123ZM100.878 108.805C99.7377 110.4 98.2074 111.694 96.5271 112.626C97.9674 111.333 99.2276 109.948 100.188 108.354C103.158 103.449 102.588 97.3708 100.908 92.0749C103.818 97.0699 104.389 103.96 100.908 108.805H100.878Z" fill="url(#paint1_radial_16544_19336)"/>
<path opacity="0.16" d="M86.4153 100.019C93.2427 100.019 98.7775 95.829 98.7775 90.6607C98.7775 85.4924 93.2427 81.3027 86.4153 81.3027C79.5878 81.3027 74.0531 85.4924 74.0531 90.6607C74.0531 95.829 79.5878 100.019 86.4153 100.019Z" fill="url(#paint2_radial_16544_19336)"/>
<path d="M87.6755 77.0603C87.6755 77.3311 87.5855 77.6019 87.4355 77.8125C87.1955 78.1134 86.8354 78.3241 86.4153 78.3241C85.9952 78.3241 85.6352 78.1134 85.3951 77.8125C85.2451 77.6019 85.1551 77.3311 85.1551 77.0603C85.1551 76.4585 85.5752 75.977 86.1153 75.8266C85.9352 75.7363 85.8452 75.5558 85.8452 75.3452C85.8452 75.0443 86.0553 74.8336 86.3253 74.7734V70.7715H86.5353V74.7734C86.8054 74.8336 87.0154 75.0443 87.0154 75.3452C87.0154 75.5558 86.8954 75.7363 86.7454 75.8266C87.2855 75.947 87.7055 76.4585 87.7055 77.0603H87.6755Z" fill="#124A83"/>
<path d="M116.421 6.37884L125.722 25.2452C125.722 25.2452 85.2751 20.5813 63.5513 48.3242C78.5539 14.6536 106.909 6.70983 114.02 5.20533C114.98 4.9947 115.971 5.47614 116.391 6.37884H116.421Z" fill="url(#paint3_linear_16544_19336)"/>
<path d="M175.621 67.6124C164.369 50.1903 144.986 27.6229 112.67 30.3611C65.5616 34.3329 45.7581 83.5601 45.4581 84.3424L46.0882 83.5902C46.0882 83.5902 60.2507 73.0286 86.3253 73.7809C86.3853 73.7809 86.4753 73.7809 86.5353 73.7809C96.8572 74.1119 109.039 76.2181 122.962 81.4237C124.522 68.5151 126.982 58.1943 140.275 46.6397C135.054 54.4029 127.313 71.9153 134.394 84.1017C139.705 85.4558 158.788 86.1478 173.041 78.2643C176.821 76.158 177.992 71.2533 175.651 67.6124H175.621ZM157.528 72.487C155.157 72.487 153.237 70.5612 153.237 68.1841C153.237 65.807 155.157 63.8512 157.528 63.8512C159.898 63.8512 161.849 65.7769 161.849 68.1841C161.849 70.5913 159.928 72.487 157.528 72.487Z" fill="url(#paint4_linear_16544_19336)"/>
<path d="M58.8704 99.5379C58.8704 104.864 60.3707 109.859 62.9812 114.071C48.5786 101.765 31.6256 115.847 31.6256 115.847C31.8056 115.486 31.9857 115.125 32.1657 114.763C32.8258 113.409 33.4859 112.055 34.1761 110.671C35.1362 108.715 36.0964 106.76 37.0266 104.834C38.0467 102.758 39.0669 100.651 40.0871 98.575C40.9573 96.7997 41.8274 95.0545 42.6976 93.2792C42.9976 92.6473 43.2977 92.0455 43.5977 91.4136C43.7778 91.0526 43.9278 90.6313 44.1378 90.3003C44.2879 90.0897 44.5579 89.9693 44.7979 89.8189C45.248 89.5481 45.6981 89.3073 46.1482 89.0365C47.0483 88.525 47.9785 88.0436 48.9387 87.5922C50.799 86.6895 52.6893 85.8771 54.6397 85.1549C56.56 84.4328 58.4804 83.7708 60.4307 83.169C61.0308 82.9884 63.2812 82.4769 65.1115 82.0557C61.2409 86.8099 58.9004 92.888 58.9004 99.5379H58.8704Z" fill="url(#paint5_linear_16544_19336)"/>
<path d="M116.631 111.483C116.451 111.483 116.241 111.543 116.061 111.543H115.911L114.62 106.699C114.83 106.608 115.07 106.518 115.31 106.428L116.661 111.483H116.631Z" fill="white"/>
<path d="M110.24 85.6662C114.23 92.1957 115.01 101.253 112.43 108.655C112.31 109.046 112.16 109.437 111.98 109.828C111.68 110.581 111.35 111.303 110.96 111.995C111.47 111.995 111.98 111.935 112.52 111.905C112.76 111.905 113 111.874 113.27 111.844C114.11 111.784 114.98 111.694 115.88 111.574H116.031C116.211 111.544 116.391 111.513 116.601 111.483C116.661 111.483 116.721 111.483 116.751 111.483C117.531 111.393 118.341 111.273 119.181 111.152L117.501 105.134L116.481 101.493L116.991 101.313L117.591 101.102L118.461 104.262L118.611 104.803L120.321 110.972C121.191 110.851 122.062 110.701 122.962 110.551L121.311 104.382C121.521 104.292 121.762 104.202 122.002 104.111L123.712 110.43C124.552 110.28 125.422 110.129 126.262 109.949L124.582 103.69C124.822 103.6 125.032 103.509 125.272 103.419L126.982 109.828C127.823 109.678 128.693 109.497 129.533 109.317L127.853 103.028C128.093 102.938 128.303 102.848 128.543 102.757L130.253 109.196C131.153 109.016 132.053 108.805 132.954 108.595L131.033 101.403C131.243 101.313 131.483 101.223 131.723 101.132L133.704 108.444C134.844 108.173 135.954 107.903 137.064 107.632L135.414 101.764L134.394 98.1234L135.504 97.7322L136.554 101.433L138.204 107.331C139.075 107.09 139.945 106.88 140.785 106.639L139.285 101.012C139.495 100.922 139.735 100.831 139.975 100.741L141.505 106.458C142.375 106.218 143.185 105.947 143.995 105.706L142.555 100.35C142.765 100.26 143.005 100.17 143.245 100.079L144.686 105.495C145.496 105.225 146.246 104.954 146.966 104.683C146.966 104.683 147.086 104.653 147.146 104.623L145.826 99.658C146.036 99.5677 146.276 99.4774 146.516 99.3872L147.866 104.382C148.736 104.081 149.606 103.75 150.477 103.419L149.036 98.0331C149.246 97.9429 149.486 97.8526 149.726 97.7623L151.167 103.179C152.187 102.787 153.207 102.366 154.197 101.945L152.937 97.4313L151.917 93.7904L153.027 93.3993L154.077 97.1003L155.307 101.463C156.148 101.102 156.958 100.711 157.768 100.32L156.778 96.6791C156.988 96.5888 157.228 96.4985 157.468 96.4083L158.428 100.019C159.238 99.6279 160.018 99.2066 160.768 98.7854L160.018 96.0171C160.258 95.9268 160.468 95.8366 160.708 95.7463L161.429 98.4243C162.209 97.9729 162.989 97.5216 163.739 97.0402L163.289 95.3551C163.529 95.2648 163.739 95.1746 163.979 95.0843L164.399 96.649C165.209 96.1074 166.019 95.5657 166.83 94.994L166.499 93.7303C166.709 93.64 166.95 93.5497 167.19 93.4594L167.49 94.5427C171.81 91.293 175.681 87.3512 179.192 82.3262C155.908 98.996 119.931 89.0362 110.39 85.8166L110.24 85.6662Z" fill="#124B83"/>
<path d="M30.2154 176.989L30.9655 176.779C30.9655 176.779 31.1155 176.718 31.1755 176.658C31.2355 176.598 31.2956 176.538 31.2956 176.448L32.7058 170.008C32.7058 170.008 32.7058 169.858 32.7058 169.768C32.6758 169.707 32.6158 169.677 32.5558 169.647L31.7756 169.467L31.8356 169.166H34.3261L35.0462 174.432L35.1962 175.605L38.9169 169.136H41.3173L41.2573 169.437L40.5072 169.617C40.5072 169.617 40.3572 169.677 40.2971 169.738C40.2371 169.798 40.1771 169.888 40.1771 169.948L38.7369 176.418C38.7369 176.418 38.7369 176.568 38.7369 176.628C38.7369 176.688 38.8269 176.718 38.9169 176.749L39.697 176.929L39.637 177.23H36.5165L36.5765 176.929L37.3266 176.749C37.3266 176.749 37.4766 176.688 37.5367 176.628C37.5967 176.568 37.6267 176.508 37.6567 176.418L39.1569 169.647L38.6168 170.58L35.5263 175.906L34.6862 177.23H34.3861L33.4559 170.58L33.3359 169.587L31.8356 176.357C31.8356 176.357 31.8356 176.508 31.8356 176.568C31.8356 176.628 31.9257 176.658 31.9857 176.688L32.7658 176.899L32.7058 177.2H30.0953L30.1553 176.899L30.2154 176.989Z" fill="#124A83"/>
<path d="M43.4477 177.41C43.2676 177.41 43.0576 177.38 42.8476 177.32C42.6075 177.26 42.3975 177.139 42.1874 176.959C41.9774 176.778 41.7974 176.568 41.6474 176.237C41.4973 175.936 41.4373 175.545 41.4373 175.063C41.4373 174.612 41.5273 174.16 41.6774 173.739C41.8274 173.288 42.0374 172.897 42.3075 172.536C42.5775 172.175 42.9376 171.904 43.3276 171.663C43.7477 171.452 44.1978 171.332 44.7079 171.332C44.9479 171.332 45.188 171.362 45.428 171.452C45.6681 171.513 45.8781 171.663 46.0281 171.813C46.1782 171.994 46.2682 172.205 46.2682 172.506C46.2682 172.867 46.1782 173.137 45.9981 173.378C45.8181 173.619 45.6081 173.829 45.308 173.98C45.0079 174.13 44.7079 174.251 44.3778 174.311C44.0478 174.371 43.7177 174.431 43.3877 174.431C43.2976 174.431 43.1776 174.431 43.0576 174.431C42.9376 174.431 42.7876 174.431 42.6975 174.401C42.5775 174.401 42.5175 174.401 42.4575 174.371V174.01C42.4575 174.01 42.7275 174.01 42.8476 174.01C42.9976 174.01 43.1176 174.01 43.2076 174.01C43.9278 174.01 44.4378 173.89 44.7379 173.619C45.038 173.348 45.218 172.987 45.218 172.506C45.218 172.295 45.128 172.144 44.9779 171.994C44.8279 171.874 44.5579 171.813 44.2278 171.813C44.0478 171.813 43.8377 171.904 43.6277 172.054C43.4177 172.205 43.2376 172.445 43.0276 172.746C42.8176 173.047 42.6975 173.348 42.5775 173.739C42.4575 174.1 42.3975 174.491 42.3975 174.913C42.3975 175.244 42.4575 175.545 42.5475 175.846C42.6375 176.146 42.8176 176.357 43.0276 176.508C43.2376 176.658 43.5377 176.748 43.9278 176.748C44.3178 176.748 44.6779 176.658 44.9479 176.477C45.248 176.297 45.518 176.086 45.8181 175.906H45.9681L45.8181 176.477C45.578 176.658 45.368 176.808 45.128 176.959C44.9179 177.109 44.6779 177.23 44.4078 177.32C44.1378 177.41 43.8077 177.44 43.3877 177.44L43.4477 177.41Z" fill="#124A83"/>
<path d="M50.889 173.86V174.221C50.3789 174.221 49.8988 174.221 49.4487 174.311C48.9986 174.371 48.6686 174.522 48.3985 174.732C48.1285 174.943 48.0085 175.274 48.0085 175.725C48.0085 176.086 48.0985 176.357 48.2785 176.508C48.4586 176.658 48.6686 176.748 48.9386 176.748C49.1487 176.748 49.3887 176.688 49.6588 176.598C49.9288 176.508 50.1689 176.327 50.3789 176.117L50.949 173.408C50.949 173.408 50.949 173.288 50.979 173.198C51.009 173.108 50.979 173.047 50.979 172.957C50.979 172.867 50.979 172.807 50.979 172.777C50.979 172.476 50.889 172.265 50.6789 172.115C50.4989 171.994 50.2589 171.904 49.9888 171.904C49.7488 171.904 49.5087 171.964 49.2687 172.054C49.0287 172.175 48.7886 172.265 48.5786 172.415C48.3685 172.536 48.1885 172.656 48.0385 172.746H47.8284L48.0085 171.814L48.2485 171.723C48.5186 171.633 48.7886 171.543 49.0587 171.483C49.3287 171.422 49.6888 171.362 50.1388 171.362C50.3789 171.362 50.5889 171.362 50.799 171.422C51.009 171.453 51.219 171.543 51.3991 171.633C51.5791 171.723 51.7291 171.874 51.8191 172.054C51.9392 172.235 51.9692 172.446 51.9692 172.716C51.9692 172.837 51.9692 172.987 51.9392 173.168C51.9392 173.348 51.8792 173.499 51.8492 173.619L51.5491 174.943C51.5191 175.093 51.4891 175.274 51.4291 175.455C51.3691 175.635 51.3691 175.816 51.3391 175.966C51.3091 176.117 51.3091 176.237 51.3091 176.327C51.3091 176.417 51.3391 176.508 51.4291 176.628C51.5191 176.748 51.6691 176.809 51.8492 176.809C51.9092 176.809 51.9992 176.809 52.1492 176.748C52.2992 176.748 52.4193 176.688 52.5093 176.628H52.6293V176.929C52.4193 177.049 52.1792 177.17 51.9392 177.23C51.6691 177.32 51.4291 177.35 51.189 177.35C50.949 177.35 50.799 177.29 50.6789 177.2C50.5589 177.109 50.4689 176.989 50.4389 176.839C50.4089 176.688 50.3489 176.538 50.3189 176.417C50.1088 176.658 49.8988 176.869 49.6888 177.019C49.4787 177.17 49.2387 177.26 49.0287 177.32C48.8186 177.38 48.6086 177.41 48.4285 177.41C48.0685 177.41 47.7984 177.35 47.5584 177.2C47.3184 177.049 47.1683 176.869 47.0783 176.658C46.9883 176.447 46.9283 176.177 46.9283 175.936C46.9283 175.515 47.0183 175.154 47.1983 174.883C47.3784 174.612 47.6184 174.371 47.9185 174.221C48.2185 174.07 48.5486 173.95 48.8786 173.86C49.2087 173.8 49.5387 173.769 49.8088 173.769C49.8688 173.769 49.9288 173.769 50.0188 173.769C50.1088 173.769 50.2289 173.769 50.3189 173.769C50.4389 173.769 50.5289 173.769 50.6189 173.769C50.709 173.769 50.769 173.769 50.829 173.769L50.889 173.86Z" fill="#124A83"/>
<path d="M55.1798 177.471C54.8197 177.471 54.4896 177.44 54.1596 177.35C53.8295 177.26 53.5295 177.17 53.1994 177.049L53.4995 175.515H53.8595L53.9495 176.177C53.9495 176.177 54.0095 176.357 54.0696 176.417C54.1296 176.478 54.1896 176.538 54.2796 176.568C54.3996 176.658 54.6097 176.718 54.8497 176.809C55.0897 176.899 55.3298 176.929 55.5398 176.929C55.7799 176.929 56.0199 176.899 56.2299 176.809C56.44 176.748 56.62 176.628 56.74 176.448C56.8601 176.297 56.9201 176.086 56.9201 175.816C56.9201 175.575 56.83 175.394 56.65 175.274C56.47 175.154 56.2599 175.033 56.0199 174.943C55.8399 174.883 55.6598 174.793 55.4798 174.732C55.3298 174.672 55.1497 174.612 54.9997 174.552C54.6997 174.431 54.4296 174.251 54.2796 174.01C54.0996 173.77 54.0095 173.499 54.0095 173.198C54.0095 172.927 54.0696 172.686 54.2196 172.446C54.3396 172.205 54.5196 172.024 54.7597 171.874C54.9997 171.723 55.2698 171.573 55.5398 171.483C55.8399 171.392 56.1399 171.362 56.47 171.362C56.8 171.362 57.1001 171.362 57.4001 171.453C57.7002 171.513 57.9702 171.573 58.2103 171.633L57.9102 173.168H57.5202L57.4602 172.476C57.4602 172.476 57.4302 172.325 57.3401 172.235C57.2501 172.145 57.1901 172.115 57.0701 172.054C56.9501 171.994 56.8 171.934 56.62 171.904C56.44 171.874 56.2899 171.844 56.1399 171.844C55.8099 171.844 55.5098 171.934 55.2698 172.084C55.0297 172.235 54.9097 172.506 54.9097 172.897C54.9097 173.108 54.9697 173.258 55.1197 173.408C55.2698 173.559 55.4198 173.679 55.6298 173.769C55.8099 173.86 55.9899 173.92 56.1699 173.98C56.35 174.04 56.47 174.1 56.56 174.131C56.9501 174.281 57.2501 174.462 57.4902 174.672C57.7002 174.853 57.8202 175.124 57.8202 175.455C57.8202 175.816 57.7302 176.117 57.5802 176.357C57.4302 176.598 57.2201 176.809 56.9501 176.989C56.68 177.14 56.41 177.26 56.0799 177.35C55.7499 177.41 55.4498 177.471 55.1197 177.471H55.1798Z" fill="#124A83"/>
<path d="M60.9708 177.411C60.5807 177.411 60.2207 177.32 59.9506 177.11C59.6806 176.899 59.5305 176.568 59.5305 176.117C59.5305 176.026 59.5305 175.936 59.5305 175.816C59.5305 175.695 59.5305 175.605 59.5905 175.485L60.1906 172.626C60.1906 172.626 60.1906 172.446 60.1906 172.386C60.1606 172.325 60.0706 172.265 59.9806 172.205L59.4705 171.994V171.784L61.5109 171.393L60.6707 175.124C60.6707 175.124 60.6107 175.395 60.6107 175.515C60.6107 175.635 60.5807 175.756 60.5807 175.876C60.5807 176.117 60.6707 176.327 60.8208 176.478C60.9708 176.628 61.2408 176.688 61.5709 176.688C61.8109 176.688 62.051 176.658 62.321 176.568C62.5911 176.478 62.8311 176.327 63.0412 176.117L63.8213 172.596C63.8513 172.446 63.8813 172.235 63.8813 172.024C63.8813 171.784 63.8813 171.633 63.8813 171.513H65.0515L64.2414 175.244C64.1814 175.455 64.1514 175.665 64.1213 175.876C64.0913 176.087 64.0613 176.237 64.0613 176.327C64.0613 176.418 64.0913 176.508 64.1814 176.628C64.2714 176.749 64.4214 176.809 64.6014 176.809C64.6614 176.809 64.7515 176.809 64.8715 176.749C64.9915 176.688 65.1415 176.688 65.2315 176.628H65.3516V176.929C65.1415 177.049 64.9315 177.17 64.6614 177.23C64.3914 177.32 64.1513 177.35 63.9113 177.35C63.7013 177.35 63.5512 177.29 63.4312 177.2C63.3112 177.11 63.2212 176.989 63.1612 176.839C63.1012 176.688 63.0712 176.538 63.0412 176.418C62.7711 176.719 62.5011 176.959 62.261 177.08C62.021 177.2 61.7809 177.29 61.5709 177.32C61.3609 177.32 61.1808 177.38 61.0008 177.38L60.9708 177.411Z" fill="#124A83"/>
<path d="M67.662 177.29H66.4618L67.3319 173.107C67.3319 173.107 67.362 172.927 67.362 172.837C67.362 172.746 67.362 172.656 67.362 172.596C67.362 172.475 67.362 172.415 67.3019 172.355C67.2719 172.295 67.1819 172.235 67.0619 172.205L66.5518 171.994V171.783L68.5322 171.392L68.2921 172.686C68.4721 172.475 68.6822 172.265 68.8922 172.054C69.1023 171.844 69.3423 171.693 69.5823 171.543C69.8224 171.422 70.0924 171.332 70.3625 171.332C70.5725 171.332 70.7526 171.332 70.8426 171.392C70.9626 171.422 71.0526 171.482 71.2026 171.543L70.9326 172.927H70.5425L70.4825 172.445C70.4825 172.445 70.3925 172.325 70.2425 172.265C70.0924 172.235 69.9724 172.205 69.8524 172.205C69.6724 172.205 69.4923 172.235 69.3123 172.295C69.1323 172.355 68.9522 172.445 68.8022 172.566C68.6222 172.686 68.4721 172.837 68.2921 173.017L67.632 176.146C67.632 176.146 67.632 176.357 67.632 176.508C67.632 176.658 67.632 176.778 67.632 176.929C67.632 177.079 67.632 177.169 67.632 177.26L67.662 177.29Z" fill="#124A83"/>
<path d="M73.2129 177.38C73.0329 177.38 72.8529 177.35 72.7028 177.26C72.5828 177.17 72.4628 177.079 72.4028 176.959C72.3428 176.839 72.2828 176.718 72.2828 176.598C72.2828 176.477 72.2828 176.327 72.3128 176.207C72.3128 176.086 72.3728 175.936 72.4028 175.755L73.0929 172.656C73.0929 172.656 73.0929 172.476 73.0929 172.385C73.0629 172.325 72.9729 172.265 72.8829 172.205L72.3428 171.994V171.783L74.4132 171.392L73.633 174.943C73.633 174.943 73.573 175.184 73.543 175.304C73.543 175.454 73.483 175.575 73.453 175.725C73.453 175.876 73.393 175.996 73.393 176.116C73.393 176.237 73.393 176.297 73.393 176.357C73.393 176.447 73.453 176.538 73.543 176.628C73.633 176.748 73.783 176.778 73.9631 176.778C74.0231 176.778 74.1131 176.778 74.2631 176.718C74.4132 176.688 74.5632 176.658 74.6532 176.598H74.7732V176.899C74.7732 176.899 74.4732 177.049 74.2931 177.139C74.1131 177.2 73.9331 177.26 73.753 177.29C73.573 177.32 73.423 177.35 73.273 177.35L73.2129 177.38ZM74.1731 170.038C74.1731 170.038 73.9331 170.008 73.813 169.948C73.693 169.888 73.633 169.798 73.573 169.707C73.513 169.617 73.483 169.497 73.483 169.346C73.483 169.136 73.543 168.985 73.693 168.835C73.843 168.714 73.9931 168.624 74.2031 168.624C74.4132 168.624 74.5632 168.684 74.7132 168.805C74.8632 168.925 74.9232 169.105 74.9232 169.286C74.9232 169.467 74.8632 169.647 74.7132 169.798C74.5632 169.948 74.4132 170.008 74.2031 170.008L74.1731 170.038Z" fill="#124A83"/>
<path d="M80.3842 177.38C80.2042 177.38 80.0242 177.35 79.9042 177.26C79.7841 177.17 79.6641 177.08 79.6041 176.959C79.5441 176.839 79.4841 176.718 79.4841 176.598C79.4841 176.508 79.4841 176.388 79.5141 176.237C79.5141 176.087 79.5741 175.936 79.6041 175.786L80.0242 173.95C80.0542 173.77 80.1142 173.589 80.1442 173.409C80.1742 173.228 80.2042 173.048 80.2042 172.897C80.2042 172.626 80.1142 172.446 79.9642 172.295C79.8141 172.145 79.5441 172.085 79.184 172.085C78.974 172.085 78.734 172.145 78.4639 172.205C78.1939 172.295 77.9538 172.446 77.7738 172.656L76.9936 176.207C76.9936 176.388 76.9336 176.598 76.9336 176.809C76.9336 177.019 76.9336 177.2 76.9336 177.32H75.7634L76.7836 172.656C76.7836 172.656 76.7836 172.476 76.7536 172.416C76.7236 172.355 76.6336 172.295 76.5136 172.235L76.0035 172.024V171.814L77.9838 171.423L77.8038 172.355C78.0738 172.024 78.3439 171.814 78.5539 171.693C78.764 171.573 79.004 171.483 79.214 171.453C79.4241 171.423 79.6341 171.393 79.8442 171.393C80.2342 171.393 80.5643 171.513 80.8343 171.693C81.1044 171.904 81.2544 172.235 81.2544 172.686C81.2544 172.777 81.2544 172.897 81.2544 172.987C81.2544 173.108 81.2244 173.198 81.1944 173.288L80.7443 175.244C80.6843 175.455 80.6543 175.695 80.6243 175.936C80.5943 176.177 80.5643 176.327 80.5643 176.388C80.5643 176.478 80.5943 176.568 80.6843 176.688C80.7743 176.809 80.9243 176.839 81.1044 176.839C81.1644 176.839 81.2544 176.839 81.3744 176.779C81.4944 176.779 81.6145 176.718 81.7045 176.658H81.8245V176.959C81.8245 176.959 81.5244 177.11 81.3444 177.17C81.1644 177.23 80.9844 177.29 80.8043 177.32C80.6243 177.35 80.5043 177.38 80.3842 177.38Z" fill="#124A83"/>
<path d="M84.0148 180.089C83.5948 180.089 83.2947 180.089 83.0847 179.998C82.8746 179.938 82.6946 179.878 82.5746 179.818L82.9046 178.885H83.0247C83.0247 178.885 83.2347 179.005 83.3547 179.066C83.4747 179.126 83.6248 179.186 83.7748 179.216C83.9248 179.246 84.0748 179.276 84.2549 179.276C84.675 179.276 84.975 179.216 85.185 179.156C85.3951 179.096 85.5751 179.005 85.7251 178.855C85.7852 178.765 85.8752 178.644 85.9052 178.464C85.9652 178.283 86.0252 178.073 86.0552 177.862C86.1152 177.621 86.1452 177.38 86.2052 177.14L86.3853 176.327C86.1152 176.658 85.8752 176.869 85.6051 177.019C85.3651 177.14 85.155 177.23 84.945 177.26C84.765 177.29 84.5849 177.32 84.4649 177.32C84.0748 177.32 83.7448 177.23 83.4747 177.019C83.2047 176.809 82.9947 176.568 82.8746 176.237C82.7546 175.906 82.6646 175.515 82.6646 175.094C82.6646 174.642 82.7546 174.191 82.9046 173.74C83.0547 173.288 83.2647 172.897 83.5348 172.536C83.8048 172.175 84.1349 171.904 84.5249 171.693C84.915 171.483 85.3351 171.393 85.8152 171.393C86.1452 171.393 86.4153 171.453 86.6253 171.573C86.8353 171.693 87.0154 171.814 87.1354 171.964L87.4354 171.453H88.5156C88.5156 171.453 88.3956 171.754 88.3056 171.994C88.2156 172.235 88.1556 172.446 88.0956 172.656L87.2254 177.14C87.1354 177.621 86.9854 178.042 86.8053 178.343C86.6253 178.674 86.3853 178.945 86.1152 179.186C85.7852 179.457 85.4551 179.667 85.125 179.848C84.795 180.028 84.4049 180.089 83.9848 180.089H84.0148ZM85.125 176.628C85.3051 176.628 85.5151 176.598 85.7551 176.478C85.9952 176.388 86.2352 176.237 86.4453 175.996L87.1954 172.265C87.1954 172.265 86.9554 172.145 86.7753 172.115C86.5953 172.085 86.4453 172.055 86.2652 172.024C86.0852 172.024 85.9652 172.024 85.8752 172.024C85.5151 172.024 85.215 172.115 84.945 172.295C84.675 172.476 84.4649 172.717 84.2849 172.987C84.1049 173.288 83.9848 173.589 83.8948 173.92C83.8048 174.251 83.7748 174.582 83.7748 174.913C83.7748 175.244 83.8048 175.545 83.8948 175.786C83.9848 176.057 84.1349 176.267 84.3149 176.418C84.4949 176.568 84.765 176.658 85.095 176.658L85.125 176.628Z" fill="#124A83"/>
<path d="M92.3264 177.29L92.3864 176.989L93.1365 176.809C93.1365 176.809 93.2865 176.749 93.3465 176.689C93.4065 176.628 93.4666 176.568 93.4666 176.478L94.9068 170.009C94.9068 170.009 94.9068 169.858 94.9068 169.768C94.8768 169.708 94.8168 169.678 94.7568 169.647L93.9466 169.467L94.0067 169.166H99.9777L99.5576 171.062H99.1676L99.0475 169.858C99.0475 169.858 99.0475 169.738 98.9875 169.708C98.9875 169.678 98.9275 169.647 98.8375 169.647H96.017L94.5167 176.448C94.5167 176.448 94.5167 176.598 94.5467 176.658C94.5768 176.719 94.6368 176.749 94.6968 176.779L95.5969 176.959L95.5369 177.26H92.3264V177.29ZM95.1168 173.409L95.2069 172.927H97.2172C97.2172 172.927 97.3672 172.927 97.3972 172.867C97.4273 172.837 97.4873 172.777 97.5173 172.717L98.0574 171.724H98.3874L97.7573 174.582H97.4273L97.3372 173.619C97.3372 173.619 97.3372 173.499 97.2772 173.469C97.2772 173.439 97.1872 173.409 97.1272 173.409H95.1469H95.1168Z" fill="#124A83"/>
<path d="M101.178 177.38C100.998 177.38 100.818 177.35 100.668 177.26C100.548 177.17 100.428 177.079 100.368 176.959C100.308 176.839 100.248 176.718 100.248 176.598C100.248 176.477 100.248 176.327 100.278 176.207C100.278 176.086 100.338 175.936 100.368 175.755L101.058 172.656C101.058 172.656 101.058 172.476 101.058 172.385C101.028 172.325 100.938 172.265 100.848 172.205L100.308 171.994V171.783L102.378 171.392L101.598 174.943C101.598 174.943 101.538 175.184 101.508 175.304C101.508 175.454 101.448 175.575 101.418 175.725C101.418 175.876 101.358 175.996 101.358 176.116C101.358 176.237 101.358 176.297 101.358 176.357C101.358 176.447 101.418 176.538 101.508 176.628C101.598 176.748 101.748 176.778 101.928 176.778C101.988 176.778 102.078 176.778 102.228 176.718C102.378 176.688 102.528 176.658 102.618 176.598H102.738V176.899C102.738 176.899 102.438 177.049 102.258 177.139C102.078 177.2 101.898 177.26 101.718 177.29C101.538 177.32 101.388 177.35 101.238 177.35L101.178 177.38ZM102.138 170.038C102.138 170.038 101.898 170.008 101.778 169.948C101.658 169.888 101.598 169.798 101.538 169.707C101.478 169.617 101.448 169.497 101.448 169.346C101.448 169.136 101.508 168.985 101.658 168.835C101.808 168.714 101.958 168.624 102.168 168.624C102.378 168.624 102.528 168.684 102.678 168.805C102.828 168.925 102.888 169.105 102.888 169.286C102.888 169.467 102.828 169.647 102.678 169.798C102.528 169.948 102.378 170.008 102.168 170.008L102.138 170.038Z" fill="#124A83"/>
<path d="M105.289 177.471C104.929 177.471 104.599 177.44 104.268 177.35C103.938 177.26 103.638 177.17 103.308 177.049L103.608 175.515H103.968L104.058 176.177C104.058 176.177 104.118 176.357 104.178 176.417C104.238 176.478 104.298 176.538 104.388 176.568C104.509 176.658 104.719 176.718 104.959 176.809C105.199 176.899 105.439 176.929 105.649 176.929C105.889 176.929 106.129 176.899 106.339 176.809C106.549 176.748 106.729 176.628 106.849 176.448C106.969 176.297 107.029 176.086 107.029 175.816C107.029 175.575 106.939 175.394 106.759 175.274C106.579 175.154 106.369 175.033 106.129 174.943C105.949 174.883 105.769 174.793 105.589 174.732C105.439 174.672 105.259 174.612 105.109 174.552C104.809 174.431 104.539 174.251 104.388 174.01C104.208 173.77 104.118 173.499 104.118 173.198C104.118 172.927 104.178 172.686 104.328 172.446C104.448 172.205 104.629 172.024 104.869 171.874C105.109 171.723 105.379 171.573 105.649 171.483C105.949 171.392 106.249 171.362 106.579 171.362C106.909 171.362 107.209 171.362 107.509 171.453C107.809 171.513 108.079 171.573 108.319 171.633L108.019 173.168H107.629L107.569 172.476C107.569 172.476 107.539 172.325 107.449 172.235C107.359 172.145 107.299 172.115 107.179 172.054C107.059 171.994 106.909 171.934 106.729 171.904C106.549 171.874 106.399 171.844 106.249 171.844C105.919 171.844 105.619 171.934 105.379 172.084C105.139 172.235 105.019 172.506 105.019 172.897C105.019 173.108 105.079 173.258 105.229 173.408C105.379 173.559 105.529 173.679 105.739 173.769C105.919 173.86 106.099 173.92 106.279 173.98C106.459 174.04 106.579 174.1 106.669 174.131C107.059 174.281 107.359 174.462 107.599 174.672C107.809 174.853 107.929 175.124 107.929 175.455C107.929 175.816 107.839 176.117 107.689 176.357C107.539 176.598 107.329 176.809 107.059 176.989C106.789 177.14 106.519 177.26 106.189 177.35C105.859 177.41 105.559 177.471 105.229 177.471H105.289Z" fill="#124A83"/>
<path d="M109.279 177.29L110.96 169.647C110.96 169.647 110.96 169.466 110.96 169.406C110.93 169.346 110.84 169.286 110.72 169.256L110.21 169.045V168.835L112.25 168.443L111.56 171.633L111.38 172.475L110.57 176.207C110.54 176.387 110.51 176.598 110.51 176.808C110.51 177.019 110.51 177.2 110.51 177.32H109.339L109.279 177.29ZM113.9 177.38C113.72 177.38 113.54 177.35 113.42 177.26C113.3 177.169 113.18 177.079 113.12 176.959C113.06 176.838 113 176.718 113 176.598C113 176.507 113 176.387 113.03 176.237C113.06 176.086 113.09 175.936 113.12 175.785L113.63 173.649C113.63 173.649 113.69 173.378 113.72 173.228C113.75 173.077 113.75 172.987 113.75 172.897C113.75 172.626 113.66 172.445 113.51 172.295C113.36 172.144 113.09 172.084 112.73 172.084C112.49 172.084 112.25 172.144 111.95 172.235C111.68 172.325 111.44 172.506 111.23 172.746L111.29 172.445C111.59 172.144 111.83 171.904 112.07 171.753C112.31 171.603 112.55 171.513 112.76 171.452C112.97 171.392 113.18 171.392 113.39 171.392C113.6 171.392 113.84 171.422 114.05 171.513C114.26 171.603 114.44 171.723 114.59 171.934C114.74 172.114 114.8 172.385 114.8 172.746C114.8 172.806 114.8 172.897 114.8 172.987C114.8 173.077 114.77 173.228 114.71 173.408L114.26 175.364C114.2 175.575 114.17 175.815 114.14 176.026C114.11 176.237 114.08 176.387 114.08 176.447C114.08 176.538 114.11 176.628 114.2 176.748C114.29 176.869 114.44 176.899 114.62 176.899C114.68 176.899 114.77 176.899 114.89 176.838C115.01 176.838 115.13 176.778 115.25 176.718H115.34V177.019C115.34 177.019 115.04 177.169 114.86 177.23C114.68 177.29 114.5 177.35 114.32 177.38C114.14 177.41 114.02 177.44 113.9 177.44V177.38Z" fill="#124A83"/>
<path d="M116.511 173.739H119.781L119.571 174.552H116.301L116.481 173.739H116.511Z" fill="#124A83"/>
<path d="M120.411 176.989L121.131 176.809C121.131 176.809 121.281 176.749 121.341 176.689C121.401 176.628 121.461 176.568 121.461 176.478L122.902 170.009C122.902 170.009 122.902 169.858 122.902 169.768C122.872 169.708 122.812 169.678 122.752 169.647L121.972 169.467L122.032 169.166H125.002C125.722 169.166 126.262 169.256 126.652 169.407C127.042 169.557 127.313 169.798 127.433 170.039C127.583 170.309 127.643 170.58 127.643 170.881C127.643 171.242 127.553 171.603 127.403 171.874C127.253 172.175 127.072 172.416 126.832 172.626C126.592 172.837 126.322 172.987 126.052 173.138C125.782 173.258 125.512 173.349 125.242 173.409L126.862 176.297C126.862 176.297 126.982 176.508 127.072 176.598C127.162 176.688 127.253 176.749 127.343 176.779L128.033 176.929L127.973 177.23H126.772C126.532 177.23 126.382 177.23 126.262 177.17C126.142 177.11 126.052 177.05 125.992 176.959C125.932 176.839 125.842 176.719 125.752 176.538C125.632 176.297 125.512 176.087 125.362 175.816C125.242 175.575 125.092 175.304 124.972 175.064C124.852 174.823 124.702 174.552 124.582 174.311C124.462 174.071 124.342 173.86 124.222 173.649L123.142 173.439L123.292 173.048C123.292 173.048 123.412 173.048 123.532 173.078C123.682 173.078 123.832 173.078 124.012 173.078C124.192 173.078 124.312 173.078 124.372 173.078C124.822 173.078 125.212 172.987 125.512 172.777C125.842 172.596 126.082 172.325 126.232 171.994C126.382 171.663 126.472 171.332 126.472 170.941C126.472 170.46 126.322 170.129 126.052 169.888C125.752 169.647 125.332 169.527 124.792 169.527H124.042L122.542 176.358C122.542 176.358 122.542 176.508 122.542 176.568C122.542 176.628 122.632 176.658 122.692 176.689L123.592 176.869L123.532 177.17H120.321L120.381 176.869L120.411 176.989Z" fill="#124A83"/>
<path d="M130.913 177.41C130.733 177.41 130.523 177.38 130.313 177.32C130.073 177.26 129.863 177.139 129.653 176.959C129.443 176.778 129.263 176.568 129.113 176.237C128.963 175.936 128.903 175.545 128.903 175.063C128.903 174.612 128.993 174.16 129.143 173.739C129.293 173.288 129.503 172.897 129.773 172.536C130.043 172.175 130.403 171.904 130.793 171.663C131.213 171.452 131.663 171.332 132.173 171.332C132.413 171.332 132.654 171.362 132.894 171.452C133.134 171.513 133.344 171.663 133.494 171.813C133.644 171.994 133.734 172.205 133.734 172.506C133.734 172.867 133.644 173.137 133.464 173.378C133.284 173.619 133.074 173.829 132.774 173.98C132.473 174.13 132.173 174.251 131.843 174.311C131.513 174.371 131.183 174.431 130.853 174.431C130.763 174.431 130.643 174.431 130.523 174.431C130.403 174.431 130.253 174.431 130.163 174.401C130.043 174.401 129.983 174.401 129.923 174.371V174.01C129.923 174.01 130.193 174.01 130.313 174.01C130.463 174.01 130.583 174.01 130.673 174.01C131.393 174.01 131.903 173.89 132.203 173.619C132.503 173.348 132.684 172.987 132.684 172.506C132.684 172.295 132.593 172.144 132.443 171.994C132.293 171.874 132.023 171.813 131.693 171.813C131.513 171.813 131.303 171.904 131.093 172.054C130.883 172.205 130.703 172.445 130.493 172.746C130.283 173.047 130.163 173.348 130.043 173.739C129.923 174.1 129.863 174.491 129.863 174.913C129.863 175.244 129.923 175.545 130.013 175.846C130.103 176.146 130.283 176.357 130.493 176.508C130.703 176.658 131.003 176.748 131.393 176.748C131.783 176.748 132.143 176.658 132.413 176.477C132.714 176.297 132.984 176.086 133.284 175.906H133.434L133.284 176.477C133.044 176.658 132.834 176.808 132.593 176.959C132.383 177.109 132.143 177.23 131.873 177.32C131.603 177.41 131.273 177.44 130.853 177.44L130.913 177.41Z" fill="#124A83"/>
<path d="M135.864 177.38C135.684 177.38 135.504 177.35 135.354 177.26C135.234 177.17 135.114 177.079 135.054 176.959C134.994 176.839 134.934 176.718 134.934 176.598C134.934 176.477 134.934 176.327 134.964 176.207C134.964 176.086 135.024 175.936 135.054 175.755L135.744 172.656C135.744 172.656 135.744 172.476 135.744 172.385C135.714 172.325 135.624 172.265 135.534 172.205L134.994 171.994V171.783L137.064 171.392L136.284 174.943C136.284 174.943 136.224 175.184 136.194 175.304C136.194 175.454 136.134 175.575 136.104 175.725C136.104 175.876 136.044 175.996 136.044 176.116C136.044 176.237 136.044 176.297 136.044 176.357C136.044 176.447 136.104 176.538 136.194 176.628C136.284 176.748 136.434 176.778 136.614 176.778C136.674 176.778 136.764 176.778 136.914 176.718C137.064 176.688 137.214 176.658 137.304 176.598H137.424V176.899C137.424 176.899 137.124 177.049 136.944 177.139C136.764 177.2 136.584 177.26 136.404 177.29C136.224 177.32 136.074 177.35 135.924 177.35L135.864 177.38ZM136.824 170.038C136.824 170.038 136.584 170.008 136.464 169.948C136.344 169.888 136.284 169.798 136.224 169.707C136.164 169.617 136.134 169.497 136.134 169.346C136.134 169.136 136.194 168.985 136.344 168.835C136.494 168.714 136.644 168.624 136.854 168.624C137.064 168.624 137.214 168.684 137.364 168.805C137.514 168.925 137.574 169.105 137.574 169.286C137.574 169.467 137.514 169.647 137.364 169.798C137.214 169.948 137.064 170.008 136.854 170.008L136.824 170.038Z" fill="#124A83"/>
<path d="M143.065 177.38C142.885 177.38 142.705 177.35 142.585 177.26C142.465 177.17 142.345 177.08 142.285 176.959C142.225 176.839 142.165 176.718 142.165 176.598C142.165 176.508 142.165 176.388 142.195 176.237C142.195 176.087 142.255 175.936 142.285 175.786L142.705 173.95C142.735 173.77 142.795 173.589 142.825 173.409C142.855 173.228 142.885 173.048 142.885 172.897C142.885 172.626 142.795 172.446 142.645 172.295C142.495 172.145 142.225 172.085 141.865 172.085C141.655 172.085 141.415 172.145 141.145 172.205C140.875 172.295 140.635 172.446 140.455 172.656L139.675 176.207C139.675 176.388 139.615 176.598 139.615 176.809C139.615 177.019 139.615 177.2 139.615 177.32H138.445L139.465 172.656C139.465 172.656 139.465 172.476 139.435 172.416C139.405 172.355 139.315 172.295 139.195 172.235L138.685 172.024V171.814L140.665 171.423L140.485 172.355C140.755 172.024 141.025 171.814 141.235 171.693C141.445 171.573 141.685 171.483 141.895 171.453C142.105 171.423 142.315 171.393 142.525 171.393C142.915 171.393 143.245 171.513 143.515 171.693C143.785 171.904 143.935 172.235 143.935 172.686C143.935 172.777 143.935 172.897 143.935 172.987C143.935 173.108 143.905 173.198 143.875 173.288L143.425 175.244C143.365 175.455 143.335 175.695 143.305 175.936C143.275 176.177 143.245 176.327 143.245 176.388C143.245 176.478 143.275 176.568 143.365 176.688C143.455 176.809 143.605 176.839 143.785 176.839C143.845 176.839 143.935 176.839 144.056 176.779C144.176 176.779 144.296 176.718 144.386 176.658H144.506V176.959C144.506 176.959 144.206 177.11 144.026 177.17C143.845 177.23 143.665 177.29 143.485 177.32C143.305 177.35 143.185 177.38 143.065 177.38Z" fill="#124A83"/>
<path d="M146.696 177.35L145.886 172.656C145.886 172.656 145.826 172.416 145.766 172.355C145.706 172.295 145.646 172.265 145.526 172.205L144.986 171.994V171.784L146.636 171.393L147.296 175.154L147.446 176.267L149.066 173.589C149.246 173.288 149.366 173.017 149.456 172.747C149.546 172.476 149.576 172.265 149.606 172.055C149.636 171.844 149.636 171.724 149.636 171.603V171.483H150.987V171.603C150.987 171.603 150.807 171.814 150.687 171.994C150.567 172.175 150.417 172.355 150.267 172.566C150.117 172.777 149.967 172.987 149.847 173.198L148.016 176.147L147.146 177.32H146.606L146.696 177.35Z" fill="#124A83"/>
<path d="M153.297 177.41C153.117 177.41 152.907 177.38 152.697 177.32C152.457 177.26 152.247 177.139 152.037 176.959C151.827 176.778 151.647 176.568 151.497 176.237C151.347 175.936 151.287 175.545 151.287 175.063C151.287 174.612 151.377 174.16 151.527 173.739C151.677 173.288 151.887 172.897 152.157 172.536C152.427 172.175 152.787 171.904 153.177 171.663C153.597 171.452 154.047 171.332 154.557 171.332C154.797 171.332 155.037 171.362 155.277 171.452C155.517 171.513 155.728 171.663 155.878 171.813C156.028 171.994 156.118 172.205 156.118 172.506C156.118 172.867 156.028 173.137 155.848 173.378C155.668 173.619 155.457 173.829 155.157 173.98C154.857 174.13 154.557 174.251 154.227 174.311C153.897 174.371 153.567 174.431 153.237 174.431C153.147 174.431 153.027 174.431 152.907 174.431C152.787 174.431 152.637 174.431 152.547 174.401C152.427 174.401 152.367 174.401 152.307 174.371V174.01C152.307 174.01 152.577 174.01 152.697 174.01C152.847 174.01 152.967 174.01 153.057 174.01C153.777 174.01 154.287 173.89 154.587 173.619C154.887 173.348 155.067 172.987 155.067 172.506C155.067 172.295 154.977 172.144 154.827 171.994C154.677 171.874 154.407 171.813 154.077 171.813C153.897 171.813 153.687 171.904 153.477 172.054C153.267 172.205 153.087 172.445 152.877 172.746C152.667 173.047 152.547 173.348 152.427 173.739C152.307 174.1 152.247 174.491 152.247 174.913C152.247 175.244 152.307 175.545 152.397 175.846C152.487 176.146 152.667 176.357 152.877 176.508C153.087 176.658 153.387 176.748 153.777 176.748C154.167 176.748 154.527 176.658 154.797 176.477C155.097 176.297 155.367 176.086 155.668 175.906H155.818L155.668 176.477C155.427 176.658 155.217 176.808 154.977 176.959C154.767 177.109 154.527 177.23 154.257 177.32C153.987 177.41 153.657 177.44 153.237 177.44L153.297 177.41Z" fill="#124A83"/>
<path d="M161.639 177.38C161.459 177.38 161.279 177.35 161.159 177.26C161.039 177.17 160.919 177.08 160.858 176.959C160.798 176.839 160.738 176.718 160.738 176.598C160.738 176.508 160.738 176.388 160.768 176.237C160.768 176.087 160.828 175.936 160.858 175.786L161.279 173.95C161.309 173.77 161.369 173.589 161.399 173.409C161.429 173.228 161.459 173.048 161.459 172.897C161.459 172.626 161.369 172.446 161.219 172.295C161.069 172.145 160.798 172.085 160.438 172.085C160.228 172.085 159.988 172.145 159.718 172.205C159.448 172.295 159.208 172.446 159.028 172.656L158.248 176.207C158.248 176.388 158.188 176.598 158.188 176.809C158.188 177.019 158.188 177.2 158.188 177.32H157.018L158.038 172.656C158.038 172.656 158.038 172.476 158.008 172.416C157.978 172.355 157.888 172.295 157.768 172.235L157.258 172.024V171.814L159.238 171.423L159.058 172.355C159.328 172.024 159.598 171.814 159.808 171.693C160.018 171.573 160.258 171.483 160.468 171.453C160.678 171.423 160.888 171.393 161.099 171.393C161.489 171.393 161.819 171.513 162.089 171.693C162.359 171.904 162.509 172.235 162.509 172.686C162.509 172.777 162.509 172.897 162.509 172.987C162.509 173.108 162.479 173.198 162.449 173.288L161.999 175.244C161.939 175.455 161.909 175.695 161.879 175.936C161.849 176.177 161.819 176.327 161.819 176.388C161.819 176.478 161.849 176.568 161.939 176.688C162.029 176.809 162.179 176.839 162.359 176.839C162.419 176.839 162.509 176.839 162.629 176.779C162.749 176.779 162.869 176.718 162.959 176.658H163.079V176.959C163.079 176.959 162.779 177.11 162.599 177.17C162.419 177.23 162.239 177.29 162.059 177.32C161.879 177.35 161.759 177.38 161.639 177.38Z" fill="#124A83"/>
<path d="M165.539 177.41C165.179 177.41 164.879 177.32 164.639 177.169C164.399 177.019 164.279 176.778 164.279 176.477C164.279 176.417 164.279 176.297 164.309 176.176C164.309 176.056 164.369 175.936 164.399 175.785C164.429 175.635 164.459 175.545 164.459 175.424L165.179 172.024H164.219V171.723C164.459 171.693 164.669 171.663 164.849 171.603C165.029 171.543 165.179 171.452 165.269 171.332C165.389 171.212 165.479 171.031 165.539 170.79L165.719 170.068L166.619 169.888L165.509 175.033C165.509 175.033 165.479 175.244 165.449 175.364C165.419 175.515 165.389 175.635 165.359 175.785C165.359 175.936 165.329 176.026 165.329 176.116C165.329 176.267 165.389 176.357 165.479 176.447C165.569 176.538 165.689 176.598 165.839 176.628C165.959 176.658 166.079 176.688 166.199 176.688C166.289 176.688 166.379 176.688 166.499 176.658C166.619 176.658 166.74 176.598 166.86 176.568C166.98 176.538 167.07 176.507 167.13 176.477H167.22V176.778C167.22 176.778 167.01 176.899 166.83 177.019C166.649 177.109 166.409 177.2 166.199 177.29C165.959 177.38 165.749 177.41 165.509 177.41H165.539ZM166.109 172.054L166.229 171.573H168.24L168.12 172.054H166.139H166.109Z" fill="#124A83"/>
<path d="M170.58 177.41C170.4 177.41 170.19 177.38 169.98 177.32C169.74 177.26 169.53 177.139 169.32 176.959C169.11 176.778 168.93 176.568 168.78 176.237C168.63 175.936 168.57 175.545 168.57 175.063C168.57 174.612 168.66 174.16 168.81 173.739C168.96 173.288 169.17 172.897 169.44 172.536C169.71 172.175 170.07 171.904 170.46 171.663C170.88 171.452 171.33 171.332 171.84 171.332C172.08 171.332 172.32 171.362 172.561 171.452C172.801 171.513 173.011 171.663 173.161 171.813C173.311 171.994 173.401 172.205 173.401 172.506C173.401 172.867 173.311 173.137 173.131 173.378C172.951 173.619 172.741 173.829 172.441 173.98C172.14 174.13 171.84 174.251 171.51 174.311C171.18 174.371 170.85 174.431 170.52 174.431C170.43 174.431 170.31 174.431 170.19 174.431C170.07 174.431 169.92 174.431 169.83 174.401C169.71 174.401 169.65 174.401 169.59 174.371V174.01C169.59 174.01 169.86 174.01 169.98 174.01C170.13 174.01 170.25 174.01 170.34 174.01C171.06 174.01 171.57 173.89 171.87 173.619C172.17 173.348 172.35 172.987 172.35 172.506C172.35 172.295 172.26 172.144 172.11 171.994C171.96 171.874 171.69 171.813 171.36 171.813C171.18 171.813 170.97 171.904 170.76 172.054C170.55 172.205 170.37 172.445 170.16 172.746C169.95 173.047 169.83 173.348 169.71 173.739C169.59 174.1 169.53 174.491 169.53 174.913C169.53 175.244 169.59 175.545 169.68 175.846C169.77 176.146 169.95 176.357 170.16 176.508C170.37 176.658 170.67 176.748 171.06 176.748C171.45 176.748 171.81 176.658 172.08 176.477C172.38 176.297 172.651 176.086 172.951 175.906H173.101L172.951 176.477C172.711 176.658 172.501 176.808 172.26 176.959C172.05 177.109 171.81 177.23 171.54 177.32C171.27 177.41 170.94 177.44 170.52 177.44L170.58 177.41Z" fill="#124A83"/>
<path d="M176.611 176.748C176.791 176.748 176.971 176.688 177.241 176.598C177.481 176.508 177.691 176.357 177.871 176.147L178.802 171.874L179.282 169.677C179.282 169.677 179.282 169.497 179.282 169.437C179.252 169.376 179.162 169.316 179.072 169.286L178.532 169.075V168.865L180.572 168.474L179.192 174.853C179.162 175.033 179.102 175.214 179.072 175.424C179.042 175.635 178.982 175.816 178.952 175.996C178.922 176.177 178.892 176.297 178.892 176.387C178.892 176.478 178.922 176.568 179.012 176.688C179.102 176.809 179.252 176.869 179.432 176.869C179.492 176.869 179.582 176.869 179.732 176.809C179.882 176.748 179.972 176.748 180.092 176.688H180.182V176.989C179.972 177.109 179.762 177.23 179.492 177.29C179.222 177.38 178.982 177.41 178.742 177.41C178.532 177.41 178.382 177.35 178.262 177.26C178.142 177.17 178.051 177.049 177.991 176.899C177.931 176.748 177.901 176.598 177.871 176.447C177.631 176.718 177.421 176.929 177.211 177.049C177.001 177.2 176.821 177.29 176.641 177.32C176.461 177.35 176.251 177.41 176.041 177.41C175.651 177.41 175.321 177.32 175.051 177.14C174.781 176.959 174.571 176.688 174.421 176.357C174.271 176.026 174.211 175.635 174.211 175.214C174.211 174.732 174.301 174.281 174.451 173.83C174.601 173.378 174.811 172.957 175.081 172.596C175.351 172.235 175.681 171.934 176.071 171.723C176.461 171.513 176.911 171.392 177.391 171.392C177.631 171.392 177.901 171.453 178.202 171.543C178.472 171.633 178.712 171.784 178.862 171.994L178.802 172.295C178.802 172.295 178.592 172.175 178.442 172.145C178.292 172.115 178.142 172.084 177.961 172.054C177.781 172.054 177.631 172.054 177.481 172.054C177.121 172.054 176.791 172.145 176.521 172.325C176.251 172.506 176.041 172.746 175.861 173.047C175.681 173.348 175.561 173.679 175.471 174.04C175.381 174.401 175.351 174.762 175.351 175.124C175.351 175.424 175.411 175.725 175.501 175.966C175.591 176.207 175.741 176.417 175.951 176.568C176.161 176.718 176.401 176.778 176.701 176.778L176.611 176.748Z" fill="#124A83"/>
<path d="M23.0441 137.271H9.60171V143.409H21.8139V149.698H9.60171V161.282H1.77032V130.741H23.0441V137.271Z" fill="#124A83"/>
<path d="M33.696 135.374H26.1946V129.657H33.696V135.374ZM33.636 161.252H26.2246V137.721H33.636V161.252Z" fill="#124A83"/>
<path d="M47.8885 137.09C49.6888 137.09 51.2791 137.27 52.6893 137.661C54.0996 138.053 55.2698 138.594 56.26 139.316C57.2201 140.038 57.9703 140.941 58.4804 141.964C58.9905 143.017 59.2605 144.191 59.2605 145.485H51.9092C51.9092 144.432 51.5791 143.619 50.949 143.078C50.3189 142.506 49.3588 142.235 48.0985 142.235C47.5584 142.235 47.0783 142.295 46.6283 142.385C46.1782 142.476 45.8181 142.626 45.4881 142.837C45.158 143.047 44.918 143.258 44.7379 143.529C44.5579 143.8 44.4679 144.101 44.4679 144.402C44.4679 144.823 44.5879 145.154 44.8279 145.425C45.068 145.695 45.398 145.906 45.7881 146.087C46.2082 146.267 46.6883 146.418 47.2284 146.508C47.7685 146.628 48.3686 146.749 48.9987 146.839L50.559 147.11C51.1891 147.23 51.8492 147.35 52.5393 147.471C53.2294 147.621 53.9196 147.802 54.6097 148.012C55.2998 148.223 55.9599 148.524 56.59 148.855C57.2201 149.186 57.7602 149.607 58.2403 150.119C58.7204 150.63 59.1105 151.202 59.3805 151.894C59.6506 152.586 59.8006 153.398 59.8006 154.331C59.8006 155.535 59.5606 156.588 59.0505 157.521C58.5404 158.454 57.8202 159.236 56.8301 159.898C55.8399 160.56 54.6697 161.041 53.2594 161.372C51.8492 161.703 50.2289 161.884 48.4286 161.884C46.5082 161.884 44.8279 161.703 43.3577 161.312C41.8874 160.951 40.6572 160.379 39.667 159.657C38.6769 158.935 37.9267 158.032 37.4166 156.949C36.9065 155.896 36.6665 154.662 36.6665 153.278H43.9878C43.9878 154.391 44.3479 155.234 45.068 155.806C45.7881 156.377 46.8983 156.678 48.3686 156.678C48.9987 156.678 49.5688 156.618 50.0789 156.528C50.589 156.437 51.009 156.287 51.3691 156.076C51.7292 155.896 51.9992 155.655 52.1792 155.384C52.3593 155.114 52.4793 154.783 52.4793 154.452C52.4793 154.03 52.3593 153.669 52.1492 153.398C51.9392 153.128 51.6091 152.887 51.1891 152.706C50.769 152.526 50.2589 152.375 49.6588 152.255C49.0587 152.135 48.3986 152.014 47.6484 151.864L46.0882 151.593C45.5181 151.503 44.918 151.382 44.2278 151.232C43.5677 151.112 42.9076 150.931 42.2475 150.69C41.5874 150.48 40.9273 150.209 40.3271 149.878C39.697 149.547 39.1569 149.156 38.6769 148.644C38.1968 148.163 37.8067 147.561 37.5367 146.899C37.2666 146.237 37.1166 145.425 37.1166 144.522C37.1166 143.348 37.3566 142.325 37.8367 141.393C38.3168 140.46 39.0369 139.707 39.9671 139.046C40.8973 138.414 42.0074 137.902 43.3277 137.571C44.6479 137.24 46.1482 137.06 47.8285 137.06L47.8885 137.09Z" fill="#124A83"/>
<path d="M70.4225 161.252H63.0112V129.657H70.4225V144.913C70.8726 142.325 71.8027 140.369 73.123 139.045C74.4732 137.721 76.2435 137.059 78.4339 137.059C80.8943 137.059 82.7547 137.932 83.9849 139.647C85.2151 141.362 85.8452 143.92 85.8452 147.32V161.252H78.4339V148.915C78.4339 147.079 78.1038 145.725 77.4737 144.823C76.8436 143.92 75.8835 143.469 74.5932 143.469C73.243 143.469 72.1928 143.95 71.4727 144.883C70.7525 145.846 70.3925 147.23 70.3925 149.095V161.252H70.4225Z" fill="#124A83"/>
<path d="M104.989 161.072C103.938 161.342 102.978 161.553 102.078 161.673C101.178 161.794 100.338 161.884 99.5276 161.884C96.8272 161.884 94.7868 161.102 93.4065 159.537C92.0263 157.972 91.3362 155.625 91.3362 152.526V143.529H88.5157V137.722H91.3362V132.306H98.7475V137.722H104.989V143.529H98.7475V152.526C98.7475 153.76 98.9875 154.693 99.4376 155.234C99.8877 155.806 100.608 156.077 101.628 156.077C102.018 156.077 102.498 156.017 103.068 155.926C103.608 155.836 104.268 155.686 105.019 155.505V161.042L104.989 161.072Z" fill="#124A83"/>
<path d="M130.673 153.218C130.343 154.572 129.833 155.776 129.143 156.859C128.453 157.942 127.583 158.845 126.592 159.597C125.602 160.349 124.462 160.921 123.232 161.312C121.972 161.703 120.621 161.914 119.151 161.914C117.951 161.914 116.841 161.794 115.791 161.523C114.74 161.252 113.75 160.861 112.88 160.349C112.01 159.838 111.2 159.206 110.48 158.484C109.759 157.762 109.159 156.919 108.679 156.016C108.199 155.084 107.809 154.091 107.539 152.977C107.269 151.894 107.149 150.721 107.149 149.487C107.149 148.253 107.269 147.08 107.539 145.996C107.809 144.913 108.169 143.89 108.649 142.987C109.129 142.055 109.729 141.242 110.42 140.52C111.11 139.798 111.92 139.166 112.79 138.655C113.66 138.143 114.65 137.752 115.701 137.481C116.751 137.21 117.861 137.09 119.031 137.09C120.201 137.09 121.311 137.21 122.362 137.481C123.412 137.752 124.342 138.143 125.242 138.624C126.142 139.106 126.892 139.738 127.583 140.46C128.273 141.182 128.843 141.995 129.323 142.927C129.803 143.83 130.163 144.853 130.433 145.936C130.673 147.02 130.823 148.193 130.823 149.427C130.823 150.029 130.793 150.6 130.733 151.202H114.23C114.32 151.984 114.5 152.676 114.77 153.308C115.04 153.91 115.4 154.452 115.851 154.873C116.301 155.294 116.811 155.625 117.411 155.836C118.011 156.047 118.671 156.167 119.421 156.167C120.501 156.167 121.432 155.926 122.152 155.415C122.872 154.933 123.472 154.181 123.892 153.188H130.733L130.673 153.218ZM123.802 147.17C123.292 144.161 121.702 142.687 119.061 142.687C117.711 142.687 116.631 143.078 115.791 143.83C114.98 144.612 114.44 145.726 114.2 147.17H123.802Z" fill="#124A83"/>
<path d="M141.055 149.487C141.055 150.45 141.145 151.322 141.355 152.075C141.565 152.827 141.865 153.459 142.255 153.97C142.645 154.482 143.125 154.873 143.725 155.114C144.326 155.354 144.956 155.505 145.706 155.505C146.306 155.505 146.846 155.415 147.296 155.234C147.746 155.054 148.166 154.813 148.496 154.482C148.826 154.151 149.096 153.76 149.336 153.308C149.546 152.857 149.727 152.315 149.817 151.774H157.198C157.018 153.278 156.598 154.662 155.968 155.926C155.337 157.16 154.527 158.243 153.537 159.146C152.547 160.048 151.377 160.741 150.057 161.222C148.736 161.703 147.296 161.944 145.736 161.944C144.566 161.944 143.425 161.824 142.375 161.553C141.325 161.282 140.335 160.921 139.435 160.41C138.535 159.898 137.724 159.296 137.004 158.574C136.284 157.852 135.684 157.039 135.174 156.107C134.664 155.204 134.274 154.181 134.004 153.068C133.734 151.954 133.614 150.781 133.614 149.517C133.614 148.253 133.734 147.08 134.004 145.966C134.274 144.853 134.664 143.86 135.174 142.927C135.684 141.995 136.284 141.182 137.004 140.46C137.724 139.738 138.535 139.136 139.435 138.624C140.335 138.113 141.295 137.752 142.375 137.481C143.425 137.21 144.566 137.09 145.736 137.09C147.296 137.09 148.736 137.331 150.057 137.812C151.377 138.293 152.547 138.986 153.537 139.888C154.527 140.791 155.337 141.844 155.968 143.108C156.598 144.372 157.018 145.756 157.198 147.26H149.817C149.696 146.689 149.546 146.177 149.336 145.726C149.126 145.274 148.856 144.853 148.526 144.552C148.196 144.221 147.806 143.98 147.326 143.8C146.876 143.619 146.336 143.529 145.706 143.529C144.956 143.529 144.296 143.649 143.725 143.92C143.155 144.191 142.675 144.552 142.255 145.064C141.865 145.575 141.565 146.207 141.355 146.959C141.145 147.712 141.055 148.584 141.055 149.547V149.487Z" fill="#124A83"/>
<path d="M167.85 161.252H160.438V129.657H167.85V144.913C168.3 142.325 169.23 140.369 170.55 139.045C171.9 137.721 173.671 137.059 175.861 137.059C178.322 137.059 180.182 137.932 181.412 139.647C182.642 141.362 183.272 143.92 183.272 147.32V161.252H175.861V148.915C175.861 147.079 175.531 145.725 174.901 144.823C174.271 143.92 173.311 143.469 172.02 143.469C170.67 143.469 169.62 143.95 168.9 144.883C168.18 145.846 167.82 147.23 167.82 149.095V161.252H167.85Z" fill="#124A83"/>
<path d="M210.157 137.722L201.576 161.523C201.066 162.997 200.435 164.261 199.715 165.314C198.995 166.367 198.185 167.27 197.225 167.962C196.265 168.654 195.215 169.166 194.044 169.497C192.874 169.828 191.524 170.008 190.084 170.008C188.853 170.008 187.473 169.888 186.003 169.617V163.749C186.543 163.84 187.053 163.9 187.503 163.93C187.953 163.96 188.373 163.99 188.793 163.99C189.364 163.99 189.874 163.96 190.324 163.87C190.774 163.78 191.224 163.659 191.614 163.509C192.004 163.358 192.364 163.148 192.694 162.877C193.024 162.636 193.324 162.335 193.594 161.974L185.013 137.722H192.844L197.615 155.715L202.476 137.722H210.127H210.157Z" fill="#124A83"/>
<path d="M216.068 132.095H214.268V136.849H212.978V132.095H211.177V130.981H216.098V132.095H216.068Z" fill="#124B83"/>
<path d="M223.87 131.012V136.879H222.579V132.125L221.079 136.879H219.669L218.169 132.095V136.879H216.938V131.012H219.009L220.419 135.555L221.859 131.012H223.87Z" fill="#124B83"/>
<defs>
<radialGradient id="paint0_radial_16544_19336" cx="0" cy="0" r="1" gradientUnits="userSpaceOnUse" gradientTransform="translate(95.2969 88.1033) scale(27.3648 27.442)">
<stop stop-color="#F5A95D"/>
<stop offset="0.11" stop-color="#EA8E50"/>
<stop offset="0.27" stop-color="#DE6E41"/>
<stop offset="0.43" stop-color="#D55635"/>
<stop offset="0.6" stop-color="#CE442D"/>
<stop offset="0.78" stop-color="#CA3A28"/>
<stop offset="1" stop-color="#C93727"/>
</radialGradient>
<radialGradient id="paint1_radial_16544_19336" cx="0" cy="0" r="1" gradientUnits="userSpaceOnUse" gradientTransform="translate(88.2756 92.4661) scale(25.9846 26.0579)">
<stop stop-color="#F4C390"/>
<stop offset="0.02" stop-color="#F3BC8A"/>
<stop offset="0.16" stop-color="#F1956A"/>
<stop offset="0.31" stop-color="#F07550"/>
<stop offset="0.47" stop-color="#EF5D3C"/>
<stop offset="0.63" stop-color="#EE4B2E"/>
<stop offset="0.8" stop-color="#EE4125"/>
<stop offset="1" stop-color="#EE3E23"/>
</radialGradient>
<radialGradient id="paint2_radial_16544_19336" cx="0" cy="0" r="1" gradientUnits="userSpaceOnUse" gradientTransform="translate(86.4153 90.6607) scale(10.9519 10.9828)">
<stop stop-color="#F5A95D"/>
<stop offset="0.38" stop-color="#F5A257"/>
<stop offset="1" stop-color="#F59F55"/>
</radialGradient>
<linearGradient id="paint3_linear_16544_19336" x1="63.5213" y1="26.7497" x2="125.692" y2="26.7497" gradientUnits="userSpaceOnUse">
<stop stop-color="#F4C390"/>
<stop offset="0.02" stop-color="#F3BC8A"/>
<stop offset="0.16" stop-color="#F1956A"/>
<stop offset="0.31" stop-color="#F07550"/>
<stop offset="0.47" stop-color="#EF5D3C"/>
<stop offset="0.63" stop-color="#EE4B2E"/>
<stop offset="0.8" stop-color="#EE4125"/>
<stop offset="1" stop-color="#EE3E23"/>
</linearGradient>
<linearGradient id="paint4_linear_16544_19336" x1="45.4281" y1="57.5323" x2="176.821" y2="57.5323" gradientUnits="userSpaceOnUse">
<stop stop-color="#F4C390"/>
<stop offset="0.02" stop-color="#F3BC8A"/>
<stop offset="0.16" stop-color="#F1956A"/>
<stop offset="0.31" stop-color="#F07550"/>
<stop offset="0.47" stop-color="#EF5D3C"/>
<stop offset="0.63" stop-color="#EE4B2E"/>
<stop offset="0.8" stop-color="#EE4125"/>
<stop offset="1" stop-color="#EE3E23"/>
</linearGradient>
<linearGradient id="paint5_linear_16544_19336" x1="31.6556" y1="98.9361" x2="86.4753" y2="98.9361" gradientUnits="userSpaceOnUse">
<stop stop-color="#F4C390"/>
<stop offset="0.02" stop-color="#F3BC8A"/>
<stop offset="0.16" stop-color="#F1956A"/>
<stop offset="0.31" stop-color="#F07550"/>
<stop offset="0.47" stop-color="#EF5D3C"/>
<stop offset="0.63" stop-color="#EE4B2E"/>
<stop offset="0.8" stop-color="#EE4125"/>
<stop offset="1" stop-color="#EE3E23"/>
</linearGradient>
</defs>
</svg>
